# 3ds Max Wavefront OBJ Exporter v0.99 - (c)2007 guruware
# 创建的文件:18.07.2022 16:48:12

mtllib SND_lkbh.mtl

#
# object SND_lkbh
#

v  -72229.6875 5121.8867 -22522.7559
v  -72229.6875 5121.8867 -21397.0059
v  -72229.6875 6884.2402 -22522.7559
v  -72229.6875 6884.2402 -21397.0059
v  -72242.8672 5121.8867 -22522.7559
v  -72242.8672 5121.8867 -21397.0059
v  -72242.8672 6884.2402 -22522.7559
v  -72242.8672 6884.2402 -21397.0059
v  -72229.6797 5121.8867 -11068.7402
v  -72229.6797 5121.8867 -9942.9893
v  -72229.6797 6884.2402 -11068.7402
v  -72229.6797 6884.2402 -9942.9893
v  -72242.8594 5121.8867 -11068.7402
v  -72242.8594 5121.8867 -9942.9902
v  -72242.8594 6884.2402 -11068.7402
v  -72242.8594 6884.2402 -9942.9902
v  -72229.6797 5121.8867 -12447.6836
v  -72229.6797 5121.8867 -11321.9336
v  -72229.6797 6884.2402 -12447.6836
v  -72229.6797 6884.2402 -11321.9336
v  -72242.8594 5121.8867 -12447.6836
v  -72242.8594 5121.8867 -11321.9336
v  -72242.8594 6884.2402 -12447.6836
v  -72242.8594 6884.2402 -11321.9336
v  -72229.6797 5121.8867 -15290.4922
v  -72229.6797 5121.8867 -14164.7402
v  -72229.6797 6884.2402 -15290.4922
v  -72229.6797 6884.2402 -14164.7402
v  -72242.8594 5121.8867 -15290.4922
v  -72242.8594 5121.8867 -14164.7402
v  -72242.8594 6884.2402 -15290.4922
v  -72242.8594 6884.2402 -14164.7402
v  -72229.6797 5121.8867 -16669.4336
v  -72229.6797 5121.8867 -15543.6826
v  -72229.6797 6884.2402 -16669.4336
v  -72229.6797 6884.2402 -15543.6826
v  -72242.8594 5121.8867 -16669.4336
v  -72242.8594 5121.8867 -15543.6826
v  -72242.8594 6884.2402 -16669.4336
v  -72242.8594 6884.2402 -15543.6826
v  -72229.6797 5121.8867 -18305.0254
v  -72229.6797 5121.8867 -17179.2734
v  -72229.6797 6884.2402 -18305.0254
v  -72229.6797 6884.2402 -17179.2734
v  -72242.8594 5121.8867 -18305.0254
v  -72242.8594 5121.8867 -17179.2734
v  -72242.8594 6884.2402 -18305.0254
v  -72242.8594 6884.2402 -17179.2734
v  -72229.6797 5121.8867 -19683.9688
v  -72229.6797 5121.8867 -18558.2188
v  -72229.6797 6884.2402 -19683.9688
v  -72229.6797 6884.2402 -18558.2188
v  -72242.8594 5121.8867 -19683.9688
v  -72242.8594 5121.8867 -18558.2188
v  -72242.8594 6884.2402 -19683.9688
v  -72242.8594 6884.2402 -18558.2188
v  -72229.6875 5121.8867 -23901.6992
v  -72229.6875 5121.8867 -22775.9492
v  -72229.6875 6884.2402 -23901.6992
v  -72229.6875 6884.2402 -22775.9492
v  -72242.8672 5121.8867 -23901.6992
v  -72242.8672 5121.8867 -22775.9492
v  -72242.8672 6884.2402 -23901.6992
v  -72242.8672 6884.2402 -22775.9492
v  -72229.6875 5121.8867 -25537.7168
v  -72229.6875 5121.8867 -24411.9648
v  -72229.6875 6884.2402 -25537.7168
v  -72229.6875 6884.2402 -24411.9648
v  -72242.8672 5121.8867 -25537.7168
v  -72242.8672 5121.8867 -24411.9648
v  -72242.8672 6884.2402 -25537.7168
v  -72242.8672 6884.2402 -24411.9648
v  -72229.6875 5121.8867 -26916.6602
v  -72229.6875 5121.8867 -25790.9102
v  -72229.6875 6884.2402 -26916.6602
v  -72229.6875 6884.2402 -25790.9102
v  -72242.8672 5121.8867 -26916.6602
v  -72242.8672 5121.8867 -25790.9102
v  -72242.8672 6884.2402 -26916.6602
v  -72242.8672 6884.2402 -25790.9102
v  -72229.6875 5121.8867 -29755.4473
v  -72229.6875 5121.8867 -28629.6973
v  -72229.6875 6884.2402 -29755.4473
v  -72229.6875 6884.2402 -28629.6973
v  -72242.8594 5121.8867 -29755.4473
v  -72242.8672 5121.8867 -28629.6973
v  -72242.8594 6884.2402 -29755.4473
v  -72242.8672 6884.2402 -28629.6973
v  -72229.6875 5121.8867 -31134.3906
v  -72229.6875 5121.8867 -30008.6406
v  -72229.6875 6884.2402 -31134.3906
v  -72229.6875 6884.2402 -30008.6406
v  -72242.8594 5121.8867 -31134.3906
v  -72242.8594 5121.8867 -30008.6406
v  -72242.8594 6884.2402 -31134.3906
v  -72242.8594 6884.2402 -30008.6406
v  -72229.6875 5121.8867 -32914.4297
v  -72229.6875 5121.8867 -31788.6797
v  -72229.6875 6884.2402 -32914.4297
v  -72229.6875 6884.2402 -31788.6797
v  -72242.8594 5121.8867 -32914.4297
v  -72242.8594 5121.8867 -31788.6797
v  -72242.8594 6884.2402 -32914.4297
v  -72242.8594 6884.2402 -31788.6797
v  -72229.6875 5121.8867 -34293.3750
v  -72229.6875 5121.8867 -33167.6250
v  -72229.6875 6884.2402 -34293.3750
v  -72229.6875 6884.2402 -33167.6250
v  -72242.8594 5121.8867 -34293.3750
v  -72242.8594 5121.8867 -33167.6250
v  -72242.8594 6884.2402 -34293.3750
v  -72242.8594 6884.2402 -33167.6250
v  -72229.6797 5121.8867 -37103.4414
v  -72229.6797 5121.8867 -35977.6914
v  -72229.6797 6884.2402 -37103.4414
v  -72229.6797 6884.2402 -35977.6914
v  -72242.8594 5121.8867 -37103.4414
v  -72242.8594 5121.8867 -35977.6914
v  -72242.8594 6884.2402 -37103.4414
v  -72242.8594 6884.2402 -35977.6914
v  -72229.6797 5121.8867 -38482.3828
v  -72229.6797 5121.8867 -37356.6328
v  -72229.6797 6884.2402 -38482.3828
v  -72229.6797 6884.2402 -37356.6328
v  -72242.8594 5121.8867 -38482.3828
v  -72242.8594 5121.8867 -37356.6328
v  -72242.8594 6884.2402 -38482.3828
v  -72242.8594 6884.2402 -37356.6328
# 128 vertices

vn 1.0000 0.0000 0.0000
vn -1.0000 -0.0000 -0.0000
vn 0.0000 -1.0000 -0.0000
vn -0.0000 -0.0000 1.0000
vn -0.0000 1.0000 -0.0000
vn 0.0000 0.0000 -1.0000
vn -0.0001 -0.0000 1.0000
vn 0.0000 -0.0000 -1.0000
vn -0.0000 0.0000 1.0000
# 9 vertex normals

vt 0.1829 0.8525 0.0000
vt 0.1829 0.9228 0.0000
vt 0.1380 0.9228 0.0000
vt 0.1380 0.8525 0.0000
vt 0.4130 0.5070 1.0000
vt 0.6080 0.5070 1.0000
vt 0.6080 0.7459 1.0000
vt 0.4130 0.7459 1.0000
vt 0.8248 0.9274 0.0000
vt 0.8248 0.9723 0.0000
vt 0.8243 0.9723 0.0000
vt 0.8243 0.9274 0.0000
vt 0.8226 0.9270 0.0000
vt 0.8226 0.9973 0.0000
vt 0.8222 0.9973 0.0000
vt 0.8222 0.9270 0.0000
vt 0.8232 0.9270 0.0000
vt 0.8232 0.9719 0.0000
vt 0.8228 0.9719 0.0000
vt 0.8228 0.9270 0.0000
vt 0.8253 0.9274 0.0000
vt 0.8253 0.9977 0.0000
vt 0.8249 0.9977 0.0000
vt 0.8249 0.9274 0.0000
vt -0.0000 0.7612 1.0000
vt 0.1951 0.7612 1.0000
vt 0.1951 1.0000 1.0000
vt 0.0000 1.0000 1.0000
vt 0.2046 0.7612 1.0000
vt 0.3997 0.7612 1.0000
vt 0.3997 1.0000 1.0000
vt 0.2046 1.0000 1.0000
vt 0.4144 0.7612 1.0000
vt 0.6095 0.7612 1.0000
vt 0.6095 1.0000 1.0000
vt 0.4144 1.0000 1.0000
vt 0.6197 0.7612 1.0000
vt 0.8148 0.7612 1.0000
vt 0.8148 1.0000 1.0000
vt 0.6197 1.0000 1.0000
vt -0.0000 0.5061 1.0000
vt 0.1951 0.5061 1.0000
vt 0.1951 0.7449 1.0000
vt 0.0000 0.7449 1.0000
vt 0.2052 0.5061 1.0000
vt 0.4003 0.5061 1.0000
vt 0.4003 0.7449 1.0000
vt 0.2052 0.7449 1.0000
vt 0.6187 0.5070 1.0000
vt 0.8138 0.5070 1.0000
vt 0.8138 0.7459 1.0000
vt 0.6187 0.7459 1.0000
vt -0.0003 0.2519 1.0000
vt 0.1948 0.2519 1.0000
vt 0.1948 0.4908 1.0000
vt -0.0003 0.4908 1.0000
vt 0.2037 0.2519 1.0000
vt 0.3988 0.2519 1.0000
vt 0.3988 0.4908 1.0000
vt 0.2037 0.4908 1.0000
vt 0.4148 0.2542 1.0000
vt 0.6099 0.2542 1.0000
vt 0.6099 0.4931 1.0000
vt 0.4148 0.4931 1.0000
vt 0.6186 0.2542 1.0000
vt 0.8137 0.2542 1.0000
vt 0.8137 0.4931 1.0000
vt 0.6186 0.4931 1.0000
vt 0.2052 0.0001 1.0000
vt 0.4002 0.0001 1.0000
vt 0.4002 0.2389 1.0000
vt 0.2052 0.2389 1.0000
vt -0.0000 0.0001 1.0000
vt 0.1951 0.0001 1.0000
vt 0.1951 0.2389 1.0000
vt 0.0000 0.2389 1.0000
vt 0.6194 0.0005 1.0000
vt 0.8144 0.0005 1.0000
vt 0.8144 0.2393 1.0000
vt 0.6194 0.2393 1.0000
vt 0.4140 0.0005 1.0000
vt 0.6091 0.0005 1.0000
vt 0.6091 0.2393 1.0000
vt 0.4140 0.2393 1.0000
# 84 texture coords

o SND_lkbh
g SND_lkbh
usemtl SND_lkbh
s 2
f 1/1/1 3/2/1 4/3/1 
f 4/3/1 2/4/1 1/1/1 
s 4
f 5/5/2 6/6/2 8/7/2 
f 8/7/2 7/8/2 5/5/2 
s 8
f 1/9/3 2/10/3 6/11/3 
f 6/11/3 5/12/3 1/9/3 
s 16
f 2/13/4 4/14/4 8/15/4 
f 8/15/4 6/16/4 2/13/4 
s 32
f 4/17/5 3/18/5 7/19/5 
f 7/19/5 8/20/5 4/17/5 
s 64
f 3/21/6 1/22/6 5/23/6 
f 5/23/6 7/24/6 3/21/6 
s 2
f 9/1/1 11/2/1 12/3/1 
f 12/3/1 10/4/1 9/1/1 
s 4
f 13/25/2 14/26/2 16/27/2 
f 16/27/2 15/28/2 13/25/2 
s 8
f 9/9/3 10/10/3 14/11/3 
f 14/11/3 13/12/3 9/9/3 
s 16
f 10/13/7 12/14/7 16/15/7 
f 16/15/7 14/16/7 10/13/7 
s 32
f 12/17/5 11/18/5 15/19/5 
f 15/19/5 16/20/5 12/17/5 
s 64
f 11/21/8 9/22/8 13/23/8 
f 13/23/8 15/24/8 11/21/8 
s 2
f 17/1/1 19/2/1 20/3/1 
f 20/3/1 18/4/1 17/1/1 
s 4
f 21/29/2 22/30/2 24/31/2 
f 24/31/2 23/32/2 21/29/2 
s 8
f 17/9/3 18/10/3 22/11/3 
f 22/11/3 21/12/3 17/9/3 
s 16
f 18/13/9 20/14/9 24/15/9 
f 24/15/9 22/16/9 18/13/9 
s 32
f 20/17/5 19/18/5 23/19/5 
f 23/19/5 24/20/5 20/17/5 
s 64
f 19/21/8 17/22/8 21/23/8 
f 21/23/8 23/24/8 19/21/8 
s 2
f 25/1/1 27/2/1 28/3/1 
f 28/3/1 26/4/1 25/1/1 
s 4
f 29/33/2 30/34/2 32/35/2 
f 32/35/2 31/36/2 29/33/2 
s 8
f 25/9/3 26/10/3 30/11/3 
f 30/11/3 29/12/3 25/9/3 
s 16
f 26/13/9 28/14/9 32/15/9 
f 32/15/9 30/16/9 26/13/9 
s 32
f 28/17/5 27/18/5 31/19/5 
f 31/19/5 32/20/5 28/17/5 
s 64
f 27/21/8 25/22/8 29/23/8 
f 29/23/8 31/24/8 27/21/8 
s 2
f 33/1/1 35/2/1 36/3/1 
f 36/3/1 34/4/1 33/1/1 
s 4
f 37/37/2 38/38/2 40/39/2 
f 40/39/2 39/40/2 37/37/2 
s 8
f 33/9/3 34/10/3 38/11/3 
f 38/11/3 37/12/3 33/9/3 
s 16
f 34/13/9 36/14/9 40/15/9 
f 40/15/9 38/16/9 34/13/9 
s 32
f 36/17/5 35/18/5 39/19/5 
f 39/19/5 40/20/5 36/17/5 
s 64
f 35/21/8 33/22/8 37/23/8 
f 37/23/8 39/24/8 35/21/8 
s 2
f 41/1/1 43/2/1 44/3/1 
f 44/3/1 42/4/1 41/1/1 
s 4
f 45/41/2 46/42/2 48/43/2 
f 48/43/2 47/44/2 45/41/2 
s 8
f 41/9/3 42/10/3 46/11/3 
f 46/11/3 45/12/3 41/9/3 
s 16
f 42/13/9 44/14/9 48/15/9 
f 48/15/9 46/16/9 42/13/9 
s 32
f 44/17/5 43/18/5 47/19/5 
f 47/19/5 48/20/5 44/17/5 
s 64
f 43/21/8 41/22/8 45/23/8 
f 45/23/8 47/24/8 43/21/8 
s 2
f 49/1/1 51/2/1 52/3/1 
f 52/3/1 50/4/1 49/1/1 
s 4
f 53/45/2 54/46/2 56/47/2 
f 56/47/2 55/48/2 53/45/2 
s 8
f 49/9/3 50/10/3 54/11/3 
f 54/11/3 53/12/3 49/9/3 
s 16
f 50/13/9 52/14/9 56/15/9 
f 56/15/9 54/16/9 50/13/9 
s 32
f 52/17/5 51/18/5 55/19/5 
f 55/19/5 56/20/5 52/17/5 
s 64
f 51/21/8 49/22/8 53/23/8 
f 53/23/8 55/24/8 51/21/8 
s 2
f 57/1/1 59/2/1 60/3/1 
f 60/3/1 58/4/1 57/1/1 
s 4
f 61/49/2 62/50/2 64/51/2 
f 64/51/2 63/52/2 61/49/2 
s 8
f 57/9/3 58/10/3 62/11/3 
f 62/11/3 61/12/3 57/9/3 
s 16
f 58/13/4 60/14/4 64/15/4 
f 64/15/4 62/16/4 58/13/4 
s 32
f 60/17/5 59/18/5 63/19/5 
f 63/19/5 64/20/5 60/17/5 
s 64
f 59/21/8 57/22/8 61/23/8 
f 61/23/8 63/24/8 59/21/8 
s 2
f 65/1/1 67/2/1 68/3/1 
f 68/3/1 66/4/1 65/1/1 
s 4
f 69/53/2 70/54/2 72/55/2 
f 72/55/2 71/56/2 69/53/2 
s 8
f 65/9/3 66/10/3 70/11/3 
f 70/11/3 69/12/3 65/9/3 
s 16
f 66/13/9 68/14/9 72/15/9 
f 72/15/9 70/16/9 66/13/9 
s 32
f 68/17/5 67/18/5 71/19/5 
f 71/19/5 72/20/5 68/17/5 
s 64
f 67/21/8 65/22/8 69/23/8 
f 69/23/8 71/24/8 67/21/8 
s 2
f 73/1/1 75/2/1 76/3/1 
f 76/3/1 74/4/1 73/1/1 
s 4
f 77/57/2 78/58/2 80/59/2 
f 80/59/2 79/60/2 77/57/2 
s 8
f 73/9/3 74/10/3 78/11/3 
f 78/11/3 77/12/3 73/9/3 
s 16
f 74/13/9 76/14/9 80/15/9 
f 80/15/9 78/16/9 74/13/9 
s 32
f 76/17/5 75/18/5 79/19/5 
f 79/19/5 80/20/5 76/17/5 
s 64
f 75/21/8 73/22/8 77/23/8 
f 77/23/8 79/24/8 75/21/8 
s 2
f 81/1/1 83/2/1 84/3/1 
f 84/3/1 82/4/1 81/1/1 
s 4
f 85/61/2 86/62/2 88/63/2 
f 88/63/2 87/64/2 85/61/2 
s 8
f 81/9/3 82/10/3 86/11/3 
f 86/11/3 85/12/3 81/9/3 
s 16
f 82/13/9 84/14/9 88/15/9 
f 88/15/9 86/16/9 82/13/9 
s 32
f 84/17/5 83/18/5 87/19/5 
f 87/19/5 88/20/5 84/17/5 
s 64
f 83/21/8 81/22/8 85/23/8 
f 85/23/8 87/24/8 83/21/8 
s 2
f 89/1/1 91/2/1 92/3/1 
f 92/3/1 90/4/1 89/1/1 
s 4
f 93/65/2 94/66/2 96/67/2 
f 96/67/2 95/68/2 93/65/2 
s 8
f 89/9/3 90/10/3 94/11/3 
f 94/11/3 93/12/3 89/9/3 
s 16
f 90/13/9 92/14/9 96/15/9 
f 96/15/9 94/16/9 90/13/9 
s 32
f 92/17/5 91/18/5 95/19/5 
f 95/19/5 96/20/5 92/17/5 
s 64
f 91/21/8 89/22/8 93/23/8 
f 93/23/8 95/24/8 91/21/8 
s 2
f 97/1/1 99/2/1 100/3/1 
f 100/3/1 98/4/1 97/1/1 
s 4
f 101/69/2 102/70/2 104/71/2 
f 104/71/2 103/72/2 101/69/2 
s 8
f 97/9/3 98/10/3 102/11/3 
f 102/11/3 101/12/3 97/9/3 
s 16
f 98/13/9 100/14/9 104/15/9 
f 104/15/9 102/16/9 98/13/9 
s 32
f 100/17/5 99/18/5 103/19/5 
f 103/19/5 104/20/5 100/17/5 
s 64
f 99/21/8 97/22/8 101/23/8 
f 101/23/8 103/24/8 99/21/8 
s 2
f 105/1/1 107/2/1 108/3/1 
f 108/3/1 106/4/1 105/1/1 
s 4
f 109/73/2 110/74/2 112/75/2 
f 112/75/2 111/76/2 109/73/2 
s 8
f 105/9/3 106/10/3 110/11/3 
f 110/11/3 109/12/3 105/9/3 
s 16
f 106/13/9 108/14/9 112/15/9 
f 112/15/9 110/16/9 106/13/9 
s 32
f 108/17/5 107/18/5 111/19/5 
f 111/19/5 112/20/5 108/17/5 
s 64
f 107/21/8 105/22/8 109/23/8 
f 109/23/8 111/24/8 107/21/8 
s 2
f 113/1/1 115/2/1 116/3/1 
f 116/3/1 114/4/1 113/1/1 
s 4
f 117/77/2 118/78/2 120/79/2 
f 120/79/2 119/80/2 117/77/2 
s 8
f 113/9/3 114/10/3 118/11/3 
f 118/11/3 117/12/3 113/9/3 
s 16
f 114/13/9 116/14/9 120/15/9 
f 120/15/9 118/16/9 114/13/9 
s 32
f 116/17/5 115/18/5 119/19/5 
f 119/19/5 120/20/5 116/17/5 
s 64
f 115/21/8 113/22/8 117/23/8 
f 117/23/8 119/24/8 115/21/8 
s 2
f 121/1/1 123/2/1 124/3/1 
f 124/3/1 122/4/1 121/1/1 
s 4
f 125/81/2 126/82/2 128/83/2 
f 128/83/2 127/84/2 125/81/2 
s 8
f 121/9/3 122/10/3 126/11/3 
f 126/11/3 125/12/3 121/9/3 
s 16
f 122/13/9 124/14/9 128/15/9 
f 128/15/9 126/16/9 122/13/9 
s 32
f 124/17/5 123/18/5 127/19/5 
f 127/19/5 128/20/5 124/17/5 
s 64
f 123/21/8 121/22/8 125/23/8 
f 125/23/8 127/24/8 123/21/8 
# 192 faces

